<svg xmlns="http://www.w3.org/2000/svg" width="32" height="32" id="gps"><path style="text-indent:0;text-align:start;line-height:normal;text-transform:none;block-progression:tb" d="M15.992 5.22H16a7.248 7.248 0 0 1 7.25 7.25c0 1.81-.685 3.462-1.785 4.735a.5.5 0 0 0-.076.121l-3.76 4.264a.512.512 0 0 0-.022.023l-.078.09a.499.499 0 0 0-.078.123l-.002.004-.004.008a.48.48 0 0 0-.013.039.487.487 0 0 0-.014.043v.004a.495.495 0 0 0-.008.047v.002c-.002.015.169-.34.168-.325l-.172.225-1.386 1.547-1.364-1.545-.082-.012c0-.016.082.136.08.12a.484.484 0 0 0-.02-.098v-.002a.49.49 0 0 0-.017-.045v-.002a.508.508 0 0 0-.021-.043v-.002a.501.501 0 0 0-.026-.041v-.002a.51.51 0 0 0-.031-.04l-.006-.007-.082-.094a.5.5 0 0 0-.033-.033l-.002-.002-3.45-3.873h-.003c-.018-.032-.025-.058-.078-.111a7.21 7.21 0 0 1-2.135-5.115 7.246 7.246 0 0 1 7.242-7.248zM16 8.939a3.541 3.541 0 0 0-3.531 3.53A3.541 3.541 0 0 0 16 16a3.541 3.541 0 0 0 3.531-3.531A3.541 3.541 0 0 0 16 8.938zm0 1c1.4 0 2.531 1.13 2.531 2.53S17.401 15 16 15a2.529 2.529 0 0 1-2.531-2.531c0-1.4 1.13-2.531 2.531-2.531zm-2.129 12.558 1.754 1.99v.002a.5.5 0 0 0 .072.067h.002a.493.493 0 0 0 .178.086.506.506 0 0 0 .049.01h.002a.5.5 0 0 0 .072.005h.031a.498.498 0 0 0 .36-.152l.013-.014 1.782-1.99c1.453.169 2.735.468 3.574.865.449.213.785.446.988.66.203.215.27.387.27.54 0 .188-.104.41-.414.675-.312.267-.813.544-1.454.776-1.28.464-3.109.765-5.13.765-2.022 0-3.851-.301-5.131-.765-.64-.232-1.142-.51-1.453-.776-.312-.266-.415-.488-.415-.677 0-.154.066-.325.27-.54.204-.214.542-.449.992-.662.842-.398 2.13-.697 3.588-.865z" color="#000" font-family="sans-serif" font-weight="400" overflow="visible"></path></svg>