<svg xmlns="http://www.w3.org/2000/svg" data-name="Layer 1" viewBox="0 0 32 32" id="home"><path fill="#dfe8f4" d="M27,10.14V24a5,5,0,0,1-5,5H10a5,5,0,0,1-5-5V10.14L12.71,5H19.3Z"></path><path fill="#156cdd" d="M21,24v5H11V24.22a5.341,5.341,0,0,1,.7-2.64A4.93,4.93,0,0,1,13,20.05a4.7,4.7,0,0,1,2.5-1.03,5.018,5.018,0,0,1,5.06,2.92A5.073,5.073,0,0,1,21,24Z"></path><path fill="#0795ff" d="M21,24v5H13.5V26.72a5.341,5.341,0,0,1,.7-2.64,4.93,4.93,0,0,1,1.3-1.53A4.7,4.7,0,0,1,18,21.52a4.977,4.977,0,0,1,2.56.42A5.073,5.073,0,0,1,21,24Z"></path><path fill="#ccd8e5" d="M27,11.14v2.39L16,7.2,5,13.53V11.14L14.21,5l1.24-.83a.963.963,0,0,1,1.1,0L17.8,5l1.5,1Z"></path><path fill="#192335" d="M28 13a1 1 0 01-.554-.168L16.555 5.571a1 1 0 00-1.11 0L4.555 12.832a1 1 0 01-1.11-1.664L14.336 3.907a2.992 2.992 0 013.328 0l10.891 7.261A1 1 0 0128 13zM20 28a1 1 0 01-1-1V23a3 3 0 00-6 0v4a1 1 0 01-2 0V23a5 5 0 0110 0v4A1 1 0 0120 28z"></path><path fill="#192335" d="M22,29H10a5.006,5.006,0,0,1-5-5V14a1,1,0,0,1,2,0V24a3,3,0,0,0,3,3H22a3,3,0,0,0,3-3V11a1,1,0,0,1,2,0V24A5.006,5.006,0,0,1,22,29Z"></path></svg>